<?xml version="1.0" standalone="no"?>
<!DOCTYPE svg PUBLIC "-//W3C//DTD SVG 20010904//EN"
 "http://www.w3.org/TR/2001/REC-SVG-20010904/DTD/svg10.dtd">
<svg version="1.0" xmlns="http://www.w3.org/2000/svg"
 width="298.000000pt" height="298.000000pt" viewBox="0 0 298.000000 298.000000"
 preserveAspectRatio="xMidYMid meet">
<metadata>
Created by potrace 1.14, written by Peter Selinger 2001-2017
</metadata>
<g transform="translate(0.000000,298.000000) scale(0.100000,-0.100000)"
fill="#000000" stroke="none">
<path d="M1996 2787 c-49 -100 -101 -207 -116 -237 -15 -30 -35 -76 -45 -103
-10 -26 -20 -46 -22 -43 -2 2 14 57 36 122 62 181 36 159 -39 -34 -24 -62 -47
-115 -51 -118 -10 -6 18 77 54 161 29 70 45 151 27 140 -6 -4 -20 -26 -30 -50
-18 -43 -211 -533 -224 -569 -5 -14 -9 -16 -20 -7 -10 8 -16 5 -25 -15 -6 -15
-14 -24 -17 -22 -6 6 45 147 141 385 42 106 74 196 71 201 -3 5 1 33 9 62 21
78 5 52 -61 -102 -32 -75 -61 -132 -65 -126 -5 8 -175 -405 -241 -587 -16 -42
-26 -52 -21 -18 6 38 -23 -28 -78 -177 -23 -63 -47 -128 -54 -145 -7 -16 -61
-160 -119 -320 -59 -159 -111 -299 -116 -310 -10 -22 -253 -679 -294 -792
l-26 -73 208 0 207 0 81 228 c45 125 98 274 118 332 21 58 41 114 46 125 5 11
35 92 66 180 126 357 154 435 197 555 38 105 186 547 217 645 62 200 91 300
96 331 3 21 46 154 95 297 49 143 88 261 86 263 -1 2 -42 -79 -91 -179z"/>
<path d="M1756 2659 c-21 -68 -13 -76 9 -9 9 28 15 54 12 57 -3 3 -13 -19 -21
-48z"/>
<path d="M2363 2553 c-14 -36 -48 -106 -78 -163 -17 -34 -55 -116 -106 -230
-24 -52 -47 -99 -51 -105 -8 -9 16 77 34 124 16 40 27 81 22 81 -4 0 -33 -65
-38 -85 -2 -5 -8 -21 -13 -35 -6 -14 -19 -45 -29 -69 -34 -85 -25 -24 11 68
19 51 35 109 35 129 l-1 37 -13 -35 c-83 -230 -212 -540 -222 -536 -6 2 -17
-1 -23 -7 -21 -21 -11 8 70 213 80 202 109 303 77 270 -8 -8 -26 -42 -39 -75
-13 -33 -31 -67 -40 -75 -10 -8 -45 -86 -79 -173 -34 -87 -68 -161 -76 -164
-8 -3 -13 -18 -12 -36 0 -18 -9 -57 -21 -86 -28 -70 -32 -76 -40 -62 -4 6
-128 -315 -275 -712 -148 -397 -277 -742 -288 -766 -10 -24 -16 -46 -13 -49 2
-2 79 -5 170 -6 l165 -1 29 75 c27 70 243 672 421 1175 171 483 234 674 259
790 6 28 22 79 35 115 13 36 39 110 56 165 18 55 47 137 65 183 19 45 31 82
29 82 -3 0 -12 -17 -21 -37z"/>
<path d="M1415 2005 c-9 -20 -14 -40 -11 -43 3 -3 13 12 21 33 9 20 14 40 11
43 -3 3 -13 -12 -21 -33z"/>
<path d="M1386 1933 c-6 -14 -5 -15 5 -6 7 7 10 15 7 18 -3 3 -9 -2 -12 -12z"/>
<path d="M2353 1743 c-6 -15 -24 -57 -38 -93 -15 -36 -32 -74 -39 -85 -11 -18
-39 -92 -94 -245 -30 -84 -91 -184 -79 -130 5 23 139 405 167 475 l11 30 -24
-23 c-14 -13 -30 -43 -37 -68 -7 -24 -17 -47 -21 -50 -5 -3 -9 -3 -9 -1 0 5
25 67 45 112 30 69 24 76 -14 17 -68 -104 -106 -194 -267 -627 -41 -110 -79
-209 -84 -220 -5 -11 -73 -191 -151 -400 -78 -209 -145 -390 -150 -403 l-9
-22 148 0 147 0 273 749 c304 832 305 837 293 858 -6 12 -13 4 -26 -31 -28
-72 -27 -49 1 38 26 85 28 131 1 56 -8 -25 -16 -37 -16 -27 -1 28 -23 15 -35
-20 -23 -68 -23 -40 0 33 25 77 30 130 7 77z"/>
</g>
</svg>
