<svg width="20" height="21" viewBox="0 0 20 21" fill="none" xmlns="http://www.w3.org/2000/svg">
<path d="M8.66388 15.7076C8.47054 15.981 8.28749 16.1157 8.11249 16.1157C7.99582 16.1157 7.92943 16.0474 7.90832 15.9118C7.89999 15.8838 7.89999 15.7774 7.89999 15.5729V12.0285H7.02832V15.8351C7.02832 16.1754 7.05721 16.4049 7.10526 16.5507C7.19221 16.7946 7.3861 16.9087 7.66721 16.9087C7.98777 16.9087 8.31721 16.7151 8.6636 16.3174V16.8426H9.53665V12.0288H8.66388V15.7076Z" fill="#1755A2"/>
<path d="M3.86035 11.2913H4.88646V16.8426H5.85646V11.2913H6.90146V10.3818H3.86035V11.2913Z" fill="#1755A2"/>
<path d="M9.80023 7.08233C10.0844 7.08233 10.2205 6.85733 10.2205 6.40705V4.36038C10.2205 3.91066 10.0844 3.68649 9.80023 3.68649C9.51578 3.68649 9.37939 3.91066 9.37939 4.36038V6.40705C9.37967 6.85705 9.51578 7.08233 9.80023 7.08233Z" fill="#1755A2"/>
<path d="M12.0648 11.9699C11.7443 11.9699 11.4454 12.1454 11.164 12.4921V10.3818H10.2915V16.8426H11.164V16.3754C11.4551 16.7362 11.7548 16.9087 12.0648 16.9087C12.4123 16.9087 12.6457 16.726 12.7623 16.3679C12.8204 16.1637 12.8501 15.8432 12.8501 15.3979V13.481C12.8501 13.0254 12.8204 12.7071 12.7623 12.5135C12.6454 12.1526 12.4123 11.9699 12.0648 11.9699ZM11.9779 15.4663C11.9779 15.901 11.8498 16.1154 11.5984 16.1154C11.4551 16.1154 11.3096 16.0471 11.1637 15.9012V12.9668C11.3096 12.8232 11.4548 12.7549 11.5984 12.7549C11.8501 12.7549 11.9779 12.9776 11.9779 13.4118V15.4663Z" fill="#1755A2"/>
<path d="M14.843 11.9698C14.398 11.9698 14.0502 12.134 13.7985 12.4637C13.613 12.7068 13.5288 13.0829 13.5288 13.597V15.2837C13.5288 15.7948 13.6238 16.1751 13.8091 16.4154C14.061 16.744 14.4083 16.9084 14.8649 16.9084C15.3205 16.9084 15.678 16.7359 15.9196 16.387C16.0262 16.2303 16.0958 16.0515 16.1233 15.864C16.131 15.7765 16.1419 15.5826 16.1419 15.302V15.1743H15.2516C15.2516 15.5243 15.2408 15.7179 15.2327 15.7654C15.183 15.9984 15.0574 16.1151 14.843 16.1151C14.5435 16.1151 14.398 15.8929 14.398 15.4473V14.594H16.1421V13.5968C16.1421 13.0823 16.0546 12.7065 15.8721 12.4634C15.628 12.1337 15.2808 11.9698 14.843 11.9698ZM15.2699 13.8682H14.398V13.4229C14.398 12.9779 14.5435 12.7551 14.8352 12.7551C15.1238 12.7551 15.2699 12.9779 15.2699 13.4229V13.8682Z" fill="#1755A2"/>
<path d="M18.0556 0.043457H1.94444C0.875 0.043457 0 0.918457 0 1.9879V18.099C0 19.1685 0.875 20.0435 1.94444 20.0435H18.0556C19.125 20.0435 20 19.1685 20 18.099V1.9879C20 0.918457 19.125 0.043457 18.0556 0.043457ZM11.8278 2.95179H12.7064V6.5329C12.7064 6.74012 12.7064 6.84762 12.7172 6.87596C12.7367 7.01262 12.8056 7.08235 12.9239 7.08235C13.1 7.08235 13.2853 6.94568 13.4806 6.66957V2.95179H14.3622V7.81568H13.4806V7.28512C13.1297 7.68762 12.795 7.88318 12.4736 7.88318C12.1897 7.88318 11.9939 7.7679 11.9058 7.52123C11.8572 7.37429 11.8278 7.14124 11.8278 6.7979V2.95179V2.95179ZM8.49806 4.53735C8.49806 4.01762 8.58667 3.63735 8.77417 3.39151C9.01806 3.05929 9.36139 2.8929 9.80028 2.8929C10.2419 2.8929 10.5847 3.05929 10.8289 3.39151C11.0133 3.63735 11.1025 4.01762 11.1025 4.53735V6.24151C11.1025 6.75818 11.0136 7.14151 10.8289 7.38568C10.5847 7.71707 10.2422 7.88346 9.80028 7.88346C9.36111 7.88346 9.01778 7.71707 8.77417 7.38568C8.58667 7.14151 8.49806 6.75818 8.49806 6.24151V4.53735ZM6.14083 1.28846L6.835 3.85151L7.50139 1.28846H8.48972L7.31417 5.17235V7.81568H6.33639V5.17235C6.24806 4.70346 6.0525 4.01735 5.73917 3.10707C5.53306 2.50151 5.31833 1.89318 5.1125 1.28846H6.14083ZM16.9647 17.1318C16.7886 17.8993 16.1603 18.4654 15.4047 18.5496C13.6147 18.7496 11.8033 18.7507 10 18.7496C8.19639 18.7507 6.385 18.7496 4.59528 18.5496C3.83944 18.4651 3.21222 17.899 3.03583 17.1318C2.78444 16.0385 2.78444 14.8451 2.78444 13.7201C2.78444 12.594 2.78722 11.4015 3.03889 10.3079C3.215 9.54068 3.8425 8.97485 4.59833 8.8904C6.38806 8.68985 8.19945 8.68929 10.0031 8.68985C11.8064 8.68929 13.6178 8.68985 15.4078 8.8904C16.1631 8.97485 16.7911 9.54068 16.9675 10.3079C17.2189 11.4018 17.2175 12.594 17.2175 13.7201C17.2178 14.8451 17.2164 16.0385 16.9647 17.1318V17.1318Z" fill="#1755A2"/>
</svg>
